<svg xmlns="http://www.w3.org/2000/svg" viewBox="0 0 39.91 58.11"><defs><style>.cls-1{fill:#fff;}.cls-2{fill:#3f4a51;}</style></defs><title>logo_dhtankers_white-1</title><g id="Capa_2" data-name="Capa 2"><g id="Capa_1-2" data-name="Capa 1"><rect class="cls-1" width="39.91" height="42.98"/><path class="cls-1" d="M7.15,48a6.15,6.15,0,0,1,2,.31,4.2,4.2,0,0,1,2.64,2.51,6.72,6.72,0,0,1,0,4.48,4.2,4.2,0,0,1-2.64,2.51,6.14,6.14,0,0,1-2,.31H.77v-.35q.44,0,.44-.35V48.69q0-.35-.44-.35V48Zm-.77,8.46A7.13,7.13,0,0,0,8,56.31a2.47,2.47,0,0,0,1.12-.55,2.4,2.4,0,0,0,.66-1,6.29,6.29,0,0,0,0-3.31,2.4,2.4,0,0,0-.66-1A2.47,2.47,0,0,0,8,49.81a7.14,7.14,0,0,0-1.58-.15h-3v6.81Z"/><path class="cls-1" d="M23.8,48.69q0-.35-.42-.35V48h3v.35a.37.37,0,0,0-.24.09.32.32,0,0,0-.11.26v8.73a.32.32,0,0,0,.11.26.37.37,0,0,0,.24.09v.35h-3v-.35q.42,0,.42-.35V53.81H17.61v3.61a.32.32,0,0,0,.11.26.37.37,0,0,0,.24.09v.35h-2.9v-.35q.36,0,.37-.35V48.69q0-.35-.37-.35V48H18v.35a.37.37,0,0,0-.24.09.32.32,0,0,0-.11.26V52H23.8Z"/><path class="cls-1" d="M35.57,57.77v.35h-3v-.35a.37.37,0,0,0,.24-.09.32.32,0,0,0,.11-.26V49.77H29.78a.66.66,0,0,0-.34.1.39.39,0,0,0-.16.37h-.35V47.54h.35a.39.39,0,0,0,.16.37.65.65,0,0,0,.34.1h8.54a.65.65,0,0,0,.34-.1.39.39,0,0,0,.16-.37h.35v2.69h-.35a.39.39,0,0,0-.16-.37.66.66,0,0,0-.34-.1H35.14v7.65Q35.14,57.77,35.57,57.77Z"/><path class="cls-2" d="M35,13a32,32,0,0,1,4.13,2.16v6.8A39.5,39.5,0,0,0,35.24,18a31.93,31.93,0,0,0-7.14-4.73,19,19,0,0,0-8.07-2c-6.11,0-11.48,3.34-14.91,6.15A38,38,0,0,0,.76,21.68V15.19c1.21-.68,2.57-1.36,4.07-2A39.25,39.25,0,0,1,20.08,9.72,38.16,38.16,0,0,1,35,13Zm-30.6-.74A40.26,40.26,0,0,1,20.08,8.71a39.19,39.19,0,0,1,15.36,3.35A34,34,0,0,1,39.15,14V.82H.76V14C1.88,13.43,3.1,12.83,4.42,12.25ZM20,25.39a15.82,15.82,0,0,0-7.47,1.8A17.71,17.71,0,0,0,7.1,31.78a26.67,26.67,0,0,0-5,10.38h0A18.84,18.84,0,0,1,6.29,37.1,20.58,20.58,0,0,1,20,32.17a20.68,20.68,0,0,1,13.75,5,17.22,17.22,0,0,1,3.95,5h.05A23.38,23.38,0,0,0,33.09,32,16.61,16.61,0,0,0,20,25.39Zm13.08,12.5A19.68,19.68,0,0,0,20,33.18,19.58,19.58,0,0,0,6.95,37.86a17.89,17.89,0,0,0-3.62,4.3H36.58A16.36,16.36,0,0,0,33.11,37.89ZM20,19.57c-2.18,0-6.62,4.21-9.26,7.54q.67-.44,1.37-.81A16.82,16.82,0,0,1,20,24.38a16.53,16.53,0,0,1,8,2c.32.18.64.36,1,.56a46.28,46.28,0,0,0-3.16-3.47C22.2,20,20.53,19.57,20,19.57Zm19.18,3.92a39.56,39.56,0,0,0-4.57-4.68,30.92,30.92,0,0,0-6.91-4.58A18,18,0,0,0,20,12.35c-3.21,0-8.29,1-14.27,5.92a37,37,0,0,0-5,5V42.16h.32a27.76,27.76,0,0,1,5.23-11,20.79,20.79,0,0,1,1.78-1.94h0a31.17,31.17,0,0,1,5.19-6.42c3.56-3.49,5.61-4.22,6.71-4.22,1.86,0,4.58,2.29,6.53,4.21a36.7,36.7,0,0,1,5.27,6.36,21.44,21.44,0,0,1,2.1,2.27A24.4,24.4,0,0,1,38.8,42.16h.35Z"/></g></g></svg>